<svg width="28" height="28" viewBox="0 0 28 28" fill="none" xmlns="http://www.w3.org/2000/svg">
<g clip-path="url(#clip0_862_9306)">
<path d="M14 17.5C15.933 17.5 17.5 15.933 17.5 14C17.5 12.067 15.933 10.5 14 10.5C12.067 10.5 10.5 12.067 10.5 14C10.5 15.933 12.067 17.5 14 17.5Z" stroke="#374151" stroke-width="2" stroke-linecap="round" stroke-linejoin="round"/>
<path d="M22.6332 17.5001C22.4779 17.852 22.4315 18.2423 22.5002 18.6208C22.5688 18.9992 22.7492 19.3485 23.0182 19.6234L23.0882 19.6934C23.3051 19.9101 23.4772 20.1675 23.5946 20.4507C23.7121 20.734 23.7725 21.0376 23.7725 21.3442C23.7725 21.6509 23.7121 21.9545 23.5946 22.2378C23.4772 22.521 23.3051 22.7784 23.0882 22.9951C22.8715 23.212 22.6141 23.3841 22.3309 23.5016C22.0476 23.619 21.744 23.6794 21.4373 23.6794C21.1307 23.6794 20.8271 23.619 20.5438 23.5016C20.2605 23.3841 20.0032 23.212 19.7865 22.9951L19.7165 22.9251C19.4415 22.6561 19.0923 22.4757 18.7139 22.4071C18.3354 22.3385 17.9451 22.3848 17.5932 22.5401C17.2481 22.688 16.9538 22.9335 16.7465 23.2465C16.5392 23.5595 16.428 23.9263 16.4265 24.3017V24.5001C16.4265 25.1189 16.1807 25.7124 15.7431 26.15C15.3055 26.5876 14.712 26.8334 14.0932 26.8334C13.4743 26.8334 12.8808 26.5876 12.4433 26.15C12.0057 25.7124 11.7598 25.1189 11.7598 24.5001V24.3951C11.7508 24.0089 11.6258 23.6344 11.4011 23.3202C11.1764 23.0061 10.8624 22.7667 10.4998 22.6334C10.148 22.4781 9.75761 22.4318 9.37915 22.5004C9.00069 22.569 8.65146 22.7495 8.3765 23.0184L8.3065 23.0884C8.0898 23.3054 7.83246 23.4775 7.5492 23.5949C7.26594 23.7123 6.96231 23.7728 6.65567 23.7728C6.34903 23.7728 6.04541 23.7123 5.76214 23.5949C5.47888 23.4775 5.22154 23.3054 5.00484 23.0884C4.78789 22.8717 4.61579 22.6144 4.49836 22.3311C4.38094 22.0478 4.3205 21.7442 4.3205 21.4376C4.3205 21.1309 4.38094 20.8273 4.49836 20.5441C4.61579 20.2608 4.78789 20.0035 5.00484 19.7867L5.07484 19.7167C5.3438 19.4418 5.52422 19.0926 5.59284 18.7141C5.66146 18.3356 5.61514 17.9453 5.45984 17.5934C5.31195 17.2484 5.06639 16.9541 4.75338 16.7468C4.44038 16.5395 4.07359 16.4282 3.69817 16.4267H3.49984C2.881 16.4267 2.28751 16.1809 1.84992 15.7433C1.41234 15.3057 1.1665 14.7123 1.1665 14.0934C1.1665 13.4746 1.41234 12.8811 1.84992 12.4435C2.28751 12.0059 2.881 11.7601 3.49984 11.7601H3.60484C3.991 11.751 4.36551 11.6261 4.67969 11.4013C4.99386 11.1766 5.23317 10.8626 5.3665 10.5001C5.52181 10.1482 5.56813 9.75786 5.49951 9.3794C5.43089 9.00093 5.25046 8.65171 4.9815 8.37675L4.9115 8.30675C4.69456 8.09004 4.52245 7.8327 4.40503 7.54944C4.28761 7.26618 4.22717 6.96255 4.22717 6.65591C4.22717 6.34928 4.28761 6.04565 4.40503 5.76239C4.52245 5.47913 4.69456 5.22179 4.9115 5.00508C5.12821 4.78814 5.38555 4.61603 5.66881 4.49861C5.95207 4.38119 6.2557 4.32075 6.56234 4.32075C6.86897 4.32075 7.1726 4.38119 7.45587 4.49861C7.73913 4.61603 7.99647 4.78814 8.21317 5.00508L8.28317 5.07508C8.55813 5.34404 8.90736 5.52446 9.28582 5.59309C9.66428 5.66171 10.0546 5.61538 10.4065 5.46008H10.4998C10.8449 5.31219 11.1392 5.06663 11.3465 4.75362C11.5538 4.44062 11.665 4.07383 11.6665 3.69841V3.50008C11.6665 2.88124 11.9123 2.28775 12.3499 1.85017C12.7875 1.41258 13.381 1.16675 13.9998 1.16675C14.6187 1.16675 15.2122 1.41258 15.6498 1.85017C16.0873 2.28775 16.3332 2.88124 16.3332 3.50008V3.60508C16.3347 3.9805 16.4459 4.34729 16.6532 4.66029C16.8605 4.9733 17.1548 5.21886 17.4998 5.36675C17.8517 5.52205 18.2421 5.56838 18.6205 5.49975C18.999 5.43113 19.3482 5.25071 19.6232 4.98175L19.6932 4.91175C19.9099 4.6948 20.1672 4.5227 20.4505 4.40528C20.7337 4.28785 21.0374 4.22741 21.344 4.22741C21.6506 4.22741 21.9543 4.28785 22.2375 4.40528C22.5208 4.5227 22.7781 4.6948 22.9948 4.91175C23.2118 5.12845 23.3839 5.38579 23.5013 5.66905C23.6187 5.95232 23.6792 6.25595 23.6792 6.56258C23.6792 6.86922 23.6187 7.17285 23.5013 7.45611C23.3839 7.73937 23.2118 7.99671 22.9948 8.21342L22.9248 8.28342C22.6559 8.55837 22.4755 8.9076 22.4068 9.28606C22.3382 9.66452 22.3845 10.0549 22.5398 10.4067V10.5001C22.6877 10.8451 22.9333 11.1394 23.2463 11.3467C23.5593 11.554 23.9261 11.6653 24.3015 11.6667H24.4998C25.1187 11.6667 25.7122 11.9126 26.1498 12.3502C26.5873 12.7878 26.8332 13.3812 26.8332 14.0001C26.8332 14.6189 26.5873 15.2124 26.1498 15.65C25.7122 16.0876 25.1187 16.3334 24.4998 16.3334H24.3948C24.0194 16.3349 23.6526 16.4462 23.3396 16.6534C23.0266 16.8607 22.7811 17.155 22.6332 17.5001V17.5001Z" stroke="#374151" stroke-width="2" stroke-linecap="round" stroke-linejoin="round"/>
</g>
<defs>
<clipPath id="clip0_862_9306">
<rect width="28" height="28" fill="white"/>
</clipPath>
</defs>
</svg>
