<svg width="340" height="240" viewBox="0 0 340 240" fill="none" xmlns="http://www.w3.org/2000/svg">
<g filter="url(#filter0_d_1_19)">
<path fill-rule="evenodd" clip-rule="evenodd" d="M20 40C20 28.9543 28.9543 20 40 20H300C311.046 20 320 28.9543 320 40V112.251C320 119.397 316.188 125.999 310 129.572L305.5 132.17C302.167 134.094 302.167 138.906 305.5 140.83L310 143.428C316.188 147.001 320 153.603 320 160.749V200C320 211.046 311.046 220 300 220H40C28.9543 220 20 211.046 20 200V161.903C20 154.758 23.812 148.156 30 144.583L36.5 140.83C39.8333 138.906 39.8333 134.094 36.5 132.17L30 128.417C23.812 124.844 20 118.242 20 111.097V40Z" fill="white"/>
</g>
<path d="M39 137L300 137" stroke="#E6E6E6" stroke-dasharray="5 5"/>
<defs>
<filter id="filter0_d_1_19" x="0" y="0" width="340" height="240" filterUnits="userSpaceOnUse" color-interpolation-filters="sRGB">
<feFlood flood-opacity="0" result="BackgroundImageFix"/>
<feColorMatrix in="SourceAlpha" type="matrix" values="0 0 0 0 0 0 0 0 0 0 0 0 0 0 0 0 0 0 127 0" result="hardAlpha"/>
<feOffset/>
<feGaussianBlur stdDeviation="10"/>
<feComposite in2="hardAlpha" operator="out"/>
<feColorMatrix type="matrix" values="0 0 0 0 0.746005 0 0 0 0 0.746005 0 0 0 0 0.746005 0 0 0 0.2 0"/>
<feBlend mode="normal" in2="BackgroundImageFix" result="effect1_dropShadow_1_19"/>
<feBlend mode="normal" in="SourceGraphic" in2="effect1_dropShadow_1_19" result="shape"/>
</filter>
</defs>
</svg>
