<svg width="18" height="19" viewBox="0 0 18 19" fill="none" xmlns="http://www.w3.org/2000/svg">
<path fill-rule="evenodd" clip-rule="evenodd" d="M9.71176 2.99414C10.5251 2.20858 11.6145 1.77391 12.7452 1.78373C13.8759 1.79356 14.9575 2.2471 15.7571 3.04667C16.5567 3.84624 17.0102 4.92787 17.02 6.0586C17.0299 7.18932 16.5952 8.27867 15.8096 9.09201L15.8028 9.09905L13.5529 11.3489C13.1157 11.7863 12.5895 12.1245 12.0101 12.3406C11.4307 12.5567 10.8117 12.6457 10.1948 12.6016C9.57803 12.5574 8.97793 12.3811 8.43525 12.0846C7.89257 11.7881 7.42001 11.3784 7.0496 10.8832C6.86352 10.6344 6.91434 10.2819 7.16311 10.0958C7.41187 9.90973 7.76439 9.96055 7.95046 10.2093C8.22424 10.5753 8.57353 10.8782 8.97464 11.0973C9.37575 11.3165 9.8193 11.4468 10.2752 11.4794C10.7311 11.5121 11.1887 11.4463 11.6169 11.2865C12.0452 11.1268 12.4341 10.8768 12.7572 10.5536L15.0037 8.30709C15.5823 7.70628 15.9023 6.90256 15.8951 6.06837C15.8878 5.23262 15.5526 4.43316 14.9616 3.84217C14.3706 3.25118 13.5712 2.91595 12.7354 2.90869C11.9009 2.90144 11.097 3.22171 10.4961 3.80063L9.20912 5.08014C8.98881 5.29917 8.63266 5.29813 8.41363 5.07782C8.1946 4.85752 8.19564 4.50136 8.41595 4.28233L9.71176 2.99414Z" fill="#41E29E"/>
<path fill-rule="evenodd" clip-rule="evenodd" d="M5.99053 7.25183C6.56992 7.0357 7.18902 6.9467 7.80583 6.99088C8.42264 7.03505 9.02274 7.21136 9.56542 7.50785C10.1081 7.80434 10.5807 8.21408 10.9511 8.70926C11.1371 8.95803 11.0863 9.31054 10.8376 9.49662C10.5888 9.6827 10.2363 9.63188 10.0502 9.38312C9.77643 9.01711 9.42714 8.71426 9.02603 8.49512C8.62492 8.27597 8.18137 8.14565 7.72547 8.113C7.26956 8.08035 6.81197 8.14613 6.38372 8.30588C5.95548 8.46563 5.5666 8.71561 5.24346 9.03886L2.99698 11.2853C2.41841 11.8862 2.09834 12.6899 2.10559 13.5241C2.11285 14.3598 2.44808 15.1593 3.03907 15.7503C3.63005 16.3413 4.42952 16.6765 5.26527 16.6837C6.09946 16.691 6.90318 16.3709 7.50399 15.7923L8.78289 14.5134C9.00256 14.2938 9.35872 14.2938 9.57838 14.5134C9.79805 14.7331 9.79805 15.0893 9.57839 15.3089L8.28897 16.5984C7.47563 17.3839 6.38622 17.8185 5.2555 17.8087C4.12477 17.7989 3.04314 17.3453 2.24357 16.5458C1.444 15.7462 0.990457 14.6646 0.980632 13.5338C0.970806 12.4031 1.40548 11.3138 2.19104 10.5004L2.19783 10.4934L4.44782 8.24351C4.44779 8.24354 4.44784 8.24349 4.44782 8.24351C4.88499 7.8062 5.41117 7.46795 5.99053 7.25183Z" fill="#41E29E"/>
</svg>
