<svg width="59" height="64" viewBox="0 0 59 64" fill="none" xmlns="http://www.w3.org/2000/svg">
<path d="M0 6C0 2.68629 2.68629 0 6 0H53C56.3137 0 59 2.68629 59 6V58C59 61.3137 56.3137 64 53 64H6C2.68629 64 0 61.3137 0 58V6Z" fill="#EFEFEF"/>
<path fill-rule="evenodd" clip-rule="evenodd" d="M53 0.5H6C2.96243 0.5 0.5 2.96243 0.5 6V58C0.5 61.0376 2.96244 63.5 6 63.5H53C56.0376 63.5 58.5 61.0376 58.5 58V6C58.5 2.96243 56.0376 0.5 53 0.5ZM6 0C2.68629 0 0 2.68629 0 6V58C0 61.3137 2.68629 64 6 64H53C56.3137 64 59 61.3137 59 58V6C59 2.68629 56.3137 0 53 0H6Z" fill="#E6E6E6"/>
<path fill-rule="evenodd" clip-rule="evenodd" d="M1.49573 1.44484C1.80234 1.16634 2.27667 1.18912 2.55517 1.49573L57.0552 61.4957C57.3337 61.8023 57.3109 62.2767 57.0043 62.5552C56.6977 62.8337 56.2233 62.8109 55.9448 62.5043L1.44484 2.50428C1.16634 2.19767 1.18912 1.72334 1.49573 1.44484Z" fill="#E6E6E6"/>
<path fill-rule="evenodd" clip-rule="evenodd" d="M57.0043 1.44484C56.6977 1.16634 56.2233 1.18912 55.9448 1.49573L1.44483 61.4957C1.16633 61.8023 1.18911 62.2767 1.49572 62.5552C1.80233 62.8337 2.27666 62.8109 2.55516 62.5043L57.0552 2.50428C57.3337 2.19767 57.3109 1.72334 57.0043 1.44484Z" fill="#E6E6E6"/>
</svg>
