<svg width="14" height="14" viewBox="0 0 14 14" fill="none" xmlns="http://www.w3.org/2000/svg">
<g clip-path="url(#clip0_927_2389)">
<path d="M9.91659 12.25V11.0833C9.91659 10.4645 9.67075 9.871 9.23317 9.43342C8.79558 8.99583 8.20209 8.75 7.58325 8.75H2.91659C2.29775 8.75 1.70425 8.99583 1.26667 9.43342C0.829085 9.871 0.583252 10.4645 0.583252 11.0833V12.25" stroke="#1A1A1A" stroke-width="1.2" stroke-linecap="round" stroke-linejoin="round"/>
<path d="M5.25008 6.41667C6.53875 6.41667 7.58342 5.372 7.58342 4.08333C7.58342 2.79467 6.53875 1.75 5.25008 1.75C3.96142 1.75 2.91675 2.79467 2.91675 4.08333C2.91675 5.372 3.96142 6.41667 5.25008 6.41667Z" stroke="#1A1A1A" stroke-width="1.2" stroke-linecap="round" stroke-linejoin="round"/>
<path d="M13.4167 12.2501V11.0834C13.4164 10.5664 13.2443 10.0642 12.9275 9.65561C12.6108 9.24701 12.1673 8.95518 11.6667 8.82593" stroke="#1A1A1A" stroke-width="1.2" stroke-linecap="round" stroke-linejoin="round"/>
<path d="M9.33325 1.82593C9.83516 1.95444 10.28 2.24634 10.5977 2.65561C10.9154 3.06488 11.0878 3.56824 11.0878 4.08634C11.0878 4.60444 10.9154 5.10781 10.5977 5.51708C10.28 5.92635 9.83516 6.21825 9.33325 6.34676" stroke="#1A1A1A" stroke-width="1.2" stroke-linecap="round" stroke-linejoin="round"/>
</g>
<defs>
<clipPath id="clip0_927_2389">
<rect width="14" height="14" fill="white"/>
</clipPath>
</defs>
</svg>
