<svg width="64" height="64" viewBox="0 0 64 64" fill="none" xmlns="http://www.w3.org/2000/svg">
<circle cx="32" cy="32" r="32" fill="black"/>
<g clip-path="url(#clip0_1147_6948)">
<path d="M30.5 30.5V23C30.5 22.1716 31.1716 21.5 32 21.5C32.8284 21.5 33.5 22.1716 33.5 23V30.5H41C41.8284 30.5 42.5 31.1716 42.5 32C42.5 32.8284 41.8284 33.5 41 33.5H33.5V41C33.5 41.8284 32.8284 42.5 32 42.5C31.1716 42.5 30.5 41.8284 30.5 41V33.5H23C22.1716 33.5 21.5 32.8284 21.5 32C21.5 31.1716 22.1716 30.5 23 30.5H30.5Z" fill="white"/>
</g>
<defs>
<clipPath id="clip0_1147_6948">
<rect width="36" height="36" fill="white" transform="translate(14 14)"/>
</clipPath>
</defs>
</svg>
