<svg width="210" height="89" viewBox="0 0 210 89" fill="none" xmlns="http://www.w3.org/2000/svg">
<mask id="path-1-outside-1_688_5061" maskUnits="userSpaceOnUse" x="-0.0078125" y="0.560059" width="210" height="89" fill="black">
<rect fill="white" x="-0.0078125" y="0.560059" width="210" height="89"/>
<path fill-rule="evenodd" clip-rule="evenodd" d="M24.3398 79.0318C25.3459 82.4292 28.4671 84.7601 32.0104 84.7601H38.9526C42.533 84.7601 45.6775 82.381 46.6511 78.9355L59.6235 33.0287C59.6748 32.8472 59.8404 32.7219 60.029 32.7219C60.2176 32.7219 60.3832 32.8472 60.4345 33.0287L73.4068 78.9355C74.3805 82.381 77.5249 84.7601 81.1054 84.7601H88.0845C91.6292 84.7601 94.7512 82.4274 95.7562 79.0282L105.008 47.7341L114.277 79.0317C115.283 82.4292 118.404 84.7601 121.948 84.7601H128.89C132.47 84.7601 135.615 82.381 136.588 78.9355L149.561 33.0287C149.612 32.8472 149.778 32.7219 149.966 32.7219C150.155 32.7219 150.32 32.8472 150.372 33.0287L163.344 78.9355C164.318 82.381 167.462 84.7601 171.043 84.7601H178.022C181.566 84.7601 184.689 82.4274 185.693 79.0282L204.674 14.8283C206.19 9.70203 202.348 4.56009 197.003 4.56009H192.226C188.542 4.56009 185.334 7.07606 184.457 10.6541L173.68 54.5844C173.632 54.7808 173.456 54.9188 173.253 54.9188C173.057 54.9188 172.884 54.7876 172.831 54.5979L160.486 10.4077C159.521 6.95071 156.371 4.56006 152.781 4.56006H147.147C143.56 4.56006 140.411 6.94816 139.443 10.4027L127.102 54.4708C127.049 54.6604 126.876 54.7915 126.679 54.7915C126.477 54.7915 126.301 54.6533 126.253 54.4569L115.515 10.6553C114.638 7.07668 111.43 4.56006 107.745 4.56006H107.065H102.935H102.289C98.6048 4.56006 95.3971 7.07603 94.5193 10.6541L83.7425 54.5844C83.6944 54.7808 83.5183 54.9188 83.3162 54.9188C83.1192 54.9188 82.9464 54.7876 82.8934 54.5979L70.5492 10.4077C69.5835 6.95071 66.4335 4.56006 62.8442 4.56006H57.2096C53.6222 4.56006 50.4734 6.94816 49.506 10.4027L37.1647 54.4708C37.1116 54.6604 36.9388 54.7915 36.7419 54.7915C36.5396 54.7915 36.3636 54.6533 36.3154 54.4569L25.5773 10.6553C24.7 7.07667 21.4919 4.56009 17.8074 4.56009H12.9973C7.65022 4.56009 3.80827 9.70481 5.32665 14.8318L24.3398 79.0318Z"/>
</mask>
<g filter="url(#filter0_iiii_688_5061)">
<path fill-rule="evenodd" clip-rule="evenodd" d="M24.3398 79.0318C25.3459 82.4292 28.4671 84.7601 32.0104 84.7601H38.9526C42.533 84.7601 45.6775 82.381 46.6511 78.9355L59.6235 33.0287C59.6748 32.8472 59.8404 32.7219 60.029 32.7219C60.2176 32.7219 60.3832 32.8472 60.4345 33.0287L73.4068 78.9355C74.3805 82.381 77.5249 84.7601 81.1054 84.7601H88.0845C91.6292 84.7601 94.7512 82.4274 95.7562 79.0282L105.008 47.7341L114.277 79.0317C115.283 82.4292 118.404 84.7601 121.948 84.7601H128.89C132.47 84.7601 135.615 82.381 136.588 78.9355L149.561 33.0287C149.612 32.8472 149.778 32.7219 149.966 32.7219C150.155 32.7219 150.32 32.8472 150.372 33.0287L163.344 78.9355C164.318 82.381 167.462 84.7601 171.043 84.7601H178.022C181.566 84.7601 184.689 82.4274 185.693 79.0282L204.674 14.8283C206.19 9.70203 202.348 4.56009 197.003 4.56009H192.226C188.542 4.56009 185.334 7.07606 184.457 10.6541L173.68 54.5844C173.632 54.7808 173.456 54.9188 173.253 54.9188C173.057 54.9188 172.884 54.7876 172.831 54.5979L160.486 10.4077C159.521 6.95071 156.371 4.56006 152.781 4.56006H147.147C143.56 4.56006 140.411 6.94816 139.443 10.4027L127.102 54.4708C127.049 54.6604 126.876 54.7915 126.679 54.7915C126.477 54.7915 126.301 54.6533 126.253 54.4569L115.515 10.6553C114.638 7.07668 111.43 4.56006 107.745 4.56006H107.065H102.935H102.289C98.6048 4.56006 95.3971 7.07603 94.5193 10.6541L83.7425 54.5844C83.6944 54.7808 83.5183 54.9188 83.3162 54.9188C83.1192 54.9188 82.9464 54.7876 82.8934 54.5979L70.5492 10.4077C69.5835 6.95071 66.4335 4.56006 62.8442 4.56006H57.2096C53.6222 4.56006 50.4734 6.94816 49.506 10.4027L37.1647 54.4708C37.1116 54.6604 36.9388 54.7915 36.7419 54.7915C36.5396 54.7915 36.3636 54.6533 36.3154 54.4569L25.5773 10.6553C24.7 7.07667 21.4919 4.56009 17.8074 4.56009H12.9973C7.65022 4.56009 3.80827 9.70481 5.32665 14.8318L24.3398 79.0318Z" fill="#2AECE0"/>
</g>
<path d="M24.3398 79.0318L20.5044 80.1676L24.3398 79.0318ZM46.6511 78.9355L50.5004 80.0232L46.6511 78.9355ZM59.6235 33.0287L63.4727 34.1164L63.4728 34.1164L59.6235 33.0287ZM60.4345 33.0287L64.2837 31.941L64.2837 31.9409L60.4345 33.0287ZM73.4068 78.9355L69.5575 80.0232V80.0232L73.4068 78.9355ZM95.7562 79.0282L99.5921 80.1623L95.7562 79.0282ZM105.008 47.7341L108.844 46.5983L105.005 33.6366L101.172 46.6L105.008 47.7341ZM114.277 79.0317L118.112 77.8959L114.277 79.0317ZM136.588 78.9355L132.739 77.8478V77.8478L136.588 78.9355ZM149.561 33.0287L145.711 31.9409V31.941L149.561 33.0287ZM150.372 33.0287L154.221 31.941V31.9409L150.372 33.0287ZM163.344 78.9355L167.193 77.8478V77.8478L163.344 78.9355ZM185.693 79.0282L189.529 80.1623L185.693 79.0282ZM204.674 14.8283L200.838 13.6942V13.6942L204.674 14.8283ZM184.457 10.6541L180.572 9.70107L180.572 9.70108L184.457 10.6541ZM173.68 54.5844L177.565 55.5376L177.565 55.5374L173.68 54.5844ZM172.831 54.5979L168.978 55.6741L168.978 55.6742L172.831 54.5979ZM160.486 10.4077L156.634 11.4839V11.4839L160.486 10.4077ZM139.443 10.4027L135.592 9.32395V9.32395L139.443 10.4027ZM127.102 54.4708L130.954 55.5495L130.954 55.5495L127.102 54.4708ZM126.253 54.4569L130.138 53.5046V53.5046L126.253 54.4569ZM115.515 10.6553L111.63 11.6077V11.6077L115.515 10.6553ZM94.5193 10.6541L90.6345 9.70104V9.70105L94.5193 10.6541ZM83.7425 54.5844L87.6273 55.5374L87.6273 55.5374L83.7425 54.5844ZM82.8934 54.5979L86.7459 53.5219L86.7459 53.5218L82.8934 54.5979ZM70.5492 10.4077L74.4017 9.33155V9.33155L70.5492 10.4077ZM49.506 10.4027L45.6542 9.32395V9.32395L49.506 10.4027ZM37.1647 54.4708L41.0165 55.5495L41.0165 55.5495L37.1647 54.4708ZM36.3154 54.4569L40.2004 53.5045L40.2004 53.5045L36.3154 54.4569ZM25.5773 10.6553L21.6923 11.6077L25.5773 10.6553ZM5.32665 14.8318L9.16199 13.6959L5.32665 14.8318ZM32.0104 80.7601C30.2388 80.7601 28.6782 79.5946 28.1751 77.8959L20.5044 80.1676C22.0137 85.2638 26.6955 88.7601 32.0104 88.7601V80.7601ZM38.9526 80.7601H32.0104V88.7601H38.9526V80.7601ZM42.8018 77.8478C42.315 79.5705 40.7428 80.7601 38.9526 80.7601V88.7601C44.3232 88.7601 49.0399 85.1915 50.5004 80.0232L42.8018 77.8478ZM55.7742 31.941L42.8018 77.8478L50.5004 80.0232L63.4727 34.1164L55.7742 31.941ZM60.029 28.7219C58.0502 28.7219 56.3123 30.0367 55.7742 31.941L63.4728 34.1164C63.0372 35.6577 61.6306 36.7219 60.029 36.7219V28.7219ZM64.2837 31.9409C63.7456 30.0367 62.0078 28.7219 60.029 28.7219V36.7219C58.4273 36.7219 57.0207 35.6577 56.5852 34.1164L64.2837 31.9409ZM77.2561 77.8478L64.2837 31.941L56.5852 34.1164L69.5575 80.0232L77.2561 77.8478ZM81.1054 80.7601C79.3151 80.7601 77.7429 79.5705 77.2561 77.8478L69.5575 80.0232C71.018 85.1915 75.7347 88.7601 81.1054 88.7601V80.7601ZM88.0845 80.7601H81.1054V88.7601H88.0845V80.7601ZM91.9203 77.8941C91.4178 79.5938 89.8568 80.7601 88.0845 80.7601V88.7601C93.4015 88.7601 98.0846 85.2611 99.5921 80.1623L91.9203 77.8941ZM101.172 46.6L91.9203 77.8941L99.5921 80.1623L108.844 48.8682L101.172 46.6ZM118.112 77.8959L108.844 46.5983L101.173 48.8699L110.442 80.1675L118.112 77.8959ZM121.948 80.7601C120.176 80.7601 118.616 79.5946 118.112 77.8959L110.442 80.1675C111.951 85.2638 116.633 88.7601 121.948 88.7601V80.7601ZM128.89 80.7601H121.948V88.7601H128.89V80.7601ZM132.739 77.8478C132.252 79.5705 130.68 80.7601 128.89 80.7601V88.7601C134.261 88.7601 138.977 85.1915 140.438 80.0232L132.739 77.8478ZM145.711 31.941L132.739 77.8478L140.438 80.0232L153.41 34.1164L145.711 31.941ZM149.966 28.7219C147.987 28.7219 146.25 30.0367 145.711 31.9409L153.41 34.1164C152.974 35.6576 151.568 36.7219 149.966 36.7219V28.7219ZM154.221 31.9409C153.683 30.0366 151.945 28.7219 149.966 28.7219V36.7219C148.365 36.7219 146.958 35.6578 146.522 34.1164L154.221 31.9409ZM167.193 77.8478L154.221 31.941L146.522 34.1164L159.495 80.0232L167.193 77.8478ZM171.043 80.7601C169.252 80.7601 167.68 79.5705 167.193 77.8478L159.495 80.0232C160.955 85.1915 165.672 88.7601 171.043 88.7601V80.7601ZM178.022 80.7601H171.043V88.7601H178.022V80.7601ZM181.858 77.8941C181.355 79.5938 179.794 80.7601 178.022 80.7601V88.7601C183.339 88.7601 188.022 85.2611 189.529 80.1623L181.858 77.8941ZM200.838 13.6942L181.858 77.8941L189.529 80.1623L208.51 15.9623L200.838 13.6942ZM197.003 8.56009C199.675 8.56009 201.596 11.1311 200.838 13.6942L208.51 15.9623C210.784 8.273 205.021 0.560094 197.003 0.560094V8.56009ZM192.226 8.56009H197.003V0.560094H192.226V8.56009ZM188.341 11.6071C188.78 9.81807 190.384 8.56009 192.226 8.56009V0.560094C186.7 0.560094 181.888 4.33405 180.572 9.70107L188.341 11.6071ZM177.565 55.5374L188.341 11.6071L180.572 9.70108L169.795 53.6314L177.565 55.5374ZM173.253 58.9188C175.298 58.9188 177.078 57.5227 177.565 55.5376L169.795 53.6313C170.186 52.0388 171.613 50.9188 173.253 50.9188V58.9188ZM168.978 55.6742C169.514 57.5923 171.262 58.9188 173.253 58.9188V50.9188C174.851 50.9188 176.253 51.983 176.683 53.5217L168.978 55.6742ZM156.634 11.4839L168.978 55.6741L176.683 53.5218L164.339 9.33155L156.634 11.4839ZM152.781 8.56006C154.576 8.56006 156.151 9.75539 156.634 11.4839L164.339 9.33155C162.89 4.14603 158.165 0.560059 152.781 0.560059V8.56006ZM147.147 8.56006H152.781V0.560059H147.147V8.56006ZM143.295 11.4814C143.779 9.7541 145.353 8.56006 147.147 8.56006V0.560059C141.766 0.560059 137.043 4.14221 135.592 9.32395L143.295 11.4814ZM130.954 55.5495L143.295 11.4814L135.592 9.32395L123.25 53.3921L130.954 55.5495ZM126.679 58.7915C128.67 58.7915 130.417 57.4664 130.954 55.5495L123.25 53.392C123.681 51.8544 125.082 50.7915 126.679 50.7915V58.7915ZM122.368 55.4093C122.855 57.3951 124.635 58.7915 126.679 58.7915V50.7915C128.319 50.7915 129.747 51.9116 130.138 53.5046L122.368 55.4093ZM111.63 11.6077L122.368 55.4093L130.138 53.5046L119.4 9.70293L111.63 11.6077ZM107.745 8.56006C109.587 8.56006 111.191 9.81837 111.63 11.6077L119.4 9.70294C118.084 4.33498 113.272 0.560059 107.745 0.560059V8.56006ZM107.065 8.56006H107.745V0.560059H107.065V8.56006ZM102.935 8.56006H107.065V0.560059H102.935V8.56006ZM102.289 8.56006H102.935V0.560059H102.289V8.56006ZM98.4041 11.6071C98.843 9.81804 100.447 8.56006 102.289 8.56006V0.560059C96.7628 0.560059 91.9511 4.33401 90.6345 9.70104L98.4041 11.6071ZM87.6273 55.5374L98.4041 11.6071L90.6345 9.70105L79.8577 53.6314L87.6273 55.5374ZM83.3162 58.9188C85.3604 58.9188 87.1403 57.5228 87.6273 55.5374L79.8577 53.6314C80.2484 52.0388 81.6763 50.9188 83.3162 50.9188V58.9188ZM79.0409 55.674C79.5767 57.5923 81.3246 58.9188 83.3162 58.9188V50.9188C84.9139 50.9188 86.3161 51.983 86.7459 53.5219L79.0409 55.674ZM66.6967 11.4839L79.0409 55.6741L86.7459 53.5218L74.4017 9.33155L66.6967 11.4839ZM62.8442 8.56006C64.6389 8.56006 66.2138 9.75539 66.6967 11.4839L74.4017 9.33155C72.9532 4.14604 68.2282 0.560059 62.8442 0.560059V8.56006ZM57.2096 8.56006H62.8442V0.560059H57.2096V8.56006ZM53.3578 11.4814C53.8415 9.75411 55.4159 8.56006 57.2096 8.56006V0.560059C51.8285 0.560059 47.1054 4.14221 45.6542 9.32395L53.3578 11.4814ZM41.0165 55.5495L53.3578 11.4814L45.6542 9.32395L33.3129 53.3921L41.0165 55.5495ZM36.7419 58.7915C38.7325 58.7915 40.4797 57.4663 41.0165 55.5495L33.3129 53.3921C33.7435 51.8545 35.1451 50.7915 36.7419 50.7915V58.7915ZM32.4305 55.4093C32.9173 57.3951 34.6974 58.7915 36.7419 58.7915V50.7915C38.3819 50.7915 39.8099 51.9116 40.2004 53.5045L32.4305 55.4093ZM21.6923 11.6077L32.4305 55.4093L40.2004 53.5045L29.4622 9.70286L21.6923 11.6077ZM17.8074 8.56009C19.6496 8.56009 21.2537 9.81838 21.6923 11.6077L29.4622 9.70286C28.1463 4.33496 23.3342 0.560094 17.8074 0.560094V8.56009ZM12.9973 8.56009H17.8074V0.560094H12.9973V8.56009ZM9.16199 13.6959C8.4028 11.1324 10.3238 8.56009 12.9973 8.56009V0.560094C4.97666 0.560094 -0.786265 8.27716 1.49131 15.9677L9.16199 13.6959ZM28.1751 77.8959L9.16199 13.6959L1.49131 15.9677L20.5044 80.1676L28.1751 77.8959Z" fill="url(#paint0_linear_688_5061)" mask="url(#path-1-outside-1_688_5061)"/>
<defs>
<filter id="filter0_iiii_688_5061" x="-2.01038" y="-3.43994" width="211.021" height="96.2" filterUnits="userSpaceOnUse" color-interpolation-filters="sRGB">
<feFlood flood-opacity="0" result="BackgroundImageFix"/>
<feBlend mode="normal" in="SourceGraphic" in2="BackgroundImageFix" result="shape"/>
<feColorMatrix in="SourceAlpha" type="matrix" values="0 0 0 0 0 0 0 0 0 0 0 0 0 0 0 0 0 0 127 0" result="hardAlpha"/>
<feOffset dx="-3" dy="2"/>
<feGaussianBlur stdDeviation="5"/>
<feComposite in2="hardAlpha" operator="arithmetic" k2="-1" k3="1"/>
<feColorMatrix type="matrix" values="0 0 0 0 1 0 0 0 0 1 0 0 0 0 1 0 0 0 1 0"/>
<feBlend mode="normal" in2="shape" result="effect1_innerShadow_688_5061"/>
<feColorMatrix in="SourceAlpha" type="matrix" values="0 0 0 0 0 0 0 0 0 0 0 0 0 0 0 0 0 0 127 0" result="hardAlpha"/>
<feOffset dx="-3" dy="-2"/>
<feGaussianBlur stdDeviation="5"/>
<feComposite in2="hardAlpha" operator="arithmetic" k2="-1" k3="1"/>
<feColorMatrix type="matrix" values="0 0 0 0 1 0 0 0 0 1 0 0 0 0 1 0 0 0 0.7 0"/>
<feBlend mode="normal" in2="effect1_innerShadow_688_5061" result="effect2_innerShadow_688_5061"/>
<feColorMatrix in="SourceAlpha" type="matrix" values="0 0 0 0 0 0 0 0 0 0 0 0 0 0 0 0 0 0 127 0" result="hardAlpha"/>
<feOffset dy="-4"/>
<feGaussianBlur stdDeviation="2"/>
<feComposite in2="hardAlpha" operator="arithmetic" k2="-1" k3="1"/>
<feColorMatrix type="matrix" values="0 0 0 0 0 0 0 0 0 0 0 0 0 0 0 0 0 0 0.3 0"/>
<feBlend mode="normal" in2="effect2_innerShadow_688_5061" result="effect3_innerShadow_688_5061"/>
<feColorMatrix in="SourceAlpha" type="matrix" values="0 0 0 0 0 0 0 0 0 0 0 0 0 0 0 0 0 0 127 0" result="hardAlpha"/>
<feOffset dy="4"/>
<feGaussianBlur stdDeviation="2"/>
<feComposite in2="hardAlpha" operator="arithmetic" k2="-1" k3="1"/>
<feColorMatrix type="matrix" values="0 0 0 0 1 0 0 0 0 1 0 0 0 0 1 0 0 0 0.3 0"/>
<feBlend mode="normal" in2="effect3_innerShadow_688_5061" result="effect4_innerShadow_688_5061"/>
</filter>
<linearGradient id="paint0_linear_688_5061" x1="-65.6229" y1="-69.1468" x2="21.5738" y2="167.357" gradientUnits="userSpaceOnUse">
<stop stop-color="#00FF66"/>
<stop offset="1" stop-color="#00FFD1"/>
</linearGradient>
</defs>
</svg>
