<svg width="340" height="240" viewBox="0 0 340 240" fill="none" xmlns="http://www.w3.org/2000/svg">
<g filter="url(#filter0_d_1_18)">
<mask id="path-1-inside-1_1_18" fill="white">
<path fill-rule="evenodd" clip-rule="evenodd" d="M20 40C20 28.9543 28.9543 20 40 20H300C311.046 20 320 28.9543 320 40V112.251C320 119.397 316.188 125.999 310 129.572L305.5 132.17C302.167 134.094 302.167 138.906 305.5 140.83L310 143.428C316.188 147.001 320 153.603 320 160.749V200C320 211.046 311.046 220 300 220H40C28.9543 220 20 211.046 20 200V161.903C20 154.758 23.812 148.156 30 144.583L36.5 140.83C39.8333 138.906 39.8333 134.094 36.5 132.17L30 128.417C23.812 124.844 20 118.242 20 111.097V40Z"/>
</mask>
<path fill-rule="evenodd" clip-rule="evenodd" d="M20 40C20 28.9543 28.9543 20 40 20H300C311.046 20 320 28.9543 320 40V112.251C320 119.397 316.188 125.999 310 129.572L305.5 132.17C302.167 134.094 302.167 138.906 305.5 140.83L310 143.428C316.188 147.001 320 153.603 320 160.749V200C320 211.046 311.046 220 300 220H40C28.9543 220 20 211.046 20 200V161.903C20 154.758 23.812 148.156 30 144.583L36.5 140.83C39.8333 138.906 39.8333 134.094 36.5 132.17L30 128.417C23.812 124.844 20 118.242 20 111.097V40Z" fill="white"/>
<path d="M305.5 132.17L305.75 132.603L305.75 132.603L305.5 132.17ZM305.5 140.83L305.75 140.397L305.75 140.397L305.5 140.83ZM36.5 140.83L36.75 141.263L36.75 141.263L36.5 140.83ZM36.5 132.17L36.75 131.737L36.75 131.737L36.5 132.17ZM30 128.417L30.25 127.984L30 128.417ZM30 144.583L30.25 145.016L30 144.583ZM310 143.428L310.25 142.995L310 143.428ZM310 129.572L309.75 129.139L310 129.572ZM40 19.5C39.3221 19.5 38.6518 19.5329 37.9905 19.5973L38.0873 20.5926C38.7165 20.5313 39.3545 20.5 40 20.5V19.5ZM34.0474 20.3777C32.7506 20.7706 31.5082 21.2885 30.3343 21.9173L30.8065 22.7988C31.923 22.2008 33.1043 21.7083 34.3373 21.3348L34.0474 20.3777ZM26.9945 24.1529C25.9572 25.0051 25.0051 25.9572 24.1529 26.9945L24.9255 27.6294C25.7364 26.6424 26.6424 25.7364 27.6294 24.9255L26.9945 24.1529ZM21.9173 30.3343C21.2885 31.5082 20.7706 32.7506 20.3777 34.0474L21.3348 34.3373C21.7083 33.1044 22.2008 31.923 22.7988 30.8065L21.9173 30.3343ZM19.5973 37.9905C19.5329 38.6518 19.5 39.3221 19.5 40H20.5C20.5 39.3545 20.5313 38.7165 20.5926 38.0873L19.5973 37.9905ZM19.5 40V41.9749H20.5V40H19.5ZM19.5 45.9247V49.8745H20.5V45.9247H19.5ZM19.5 53.8243V57.7741H20.5V53.8243H19.5ZM19.5 61.724V65.6738H20.5V61.724H19.5ZM19.5 69.6236V73.5734H20.5V69.6236H19.5ZM19.5 77.5232V81.473H20.5V77.5232H19.5ZM19.5 85.4228V89.3726H20.5V85.4228H19.5ZM19.5 93.3224V97.2723H20.5V93.3224H19.5ZM19.5 101.222V105.172H20.5V101.222H19.5ZM19.5 109.122V111.097H20.5V109.122H19.5ZM19.5 111.097C19.5 111.696 19.5262 112.293 19.5778 112.884L20.574 112.797C20.5249 112.234 20.5 111.667 20.5 111.097H19.5ZM20.1981 116.403C20.5081 117.559 20.918 118.683 21.4206 119.76L22.3269 119.338C21.8487 118.312 21.4589 117.244 21.164 116.144L20.1981 116.403ZM23.2073 122.855C23.8893 123.829 24.6571 124.746 25.5039 125.593L26.2111 124.885C25.4056 124.08 24.6752 123.208 24.0265 122.281L23.2073 122.855ZM28.2414 127.889C28.7274 128.229 29.2305 128.55 29.75 128.85L30.25 127.984C29.7558 127.699 29.2771 127.394 28.8148 127.07L28.2414 127.889ZM29.75 128.85L31.375 129.788L31.875 128.922L30.25 127.984L29.75 128.85ZM34.625 131.665L36.25 132.603L36.75 131.737L35.125 130.799L34.625 131.665ZM36.25 132.603C36.9806 133.025 37.5301 133.597 37.9031 134.246L38.7699 133.747C38.3105 132.948 37.6355 132.248 36.75 131.737L36.25 132.603ZM37.9031 138.754C37.53 139.403 36.9806 139.975 36.25 140.397L36.75 141.263C37.6355 140.752 38.3104 140.052 38.7699 139.253L37.9031 138.754ZM36.25 140.397L34.625 141.335L35.125 142.201L36.75 141.263L36.25 140.397ZM31.375 143.212L29.75 144.15L30.25 145.016L31.875 144.078L31.375 143.212ZM29.75 144.15C29.2306 144.45 28.7274 144.771 28.2414 145.111L28.8148 145.93C29.2771 145.606 29.7558 145.301 30.25 145.016L29.75 144.15ZM25.504 147.407C24.6571 148.254 23.8893 149.171 23.2073 150.145L24.0265 150.719C24.6752 149.792 25.4057 148.92 26.2111 148.115L25.504 147.407ZM21.4206 153.24C20.918 154.317 20.5081 155.441 20.1981 156.597L21.164 156.856C21.4589 155.756 21.8487 154.688 22.3269 153.662L21.4206 153.24ZM19.5778 160.116C19.5262 160.707 19.5 161.304 19.5 161.903H20.5C20.5 161.333 20.5249 160.766 20.574 160.203L19.5778 160.116ZM19.5 161.903V163.808H20.5V161.903H19.5ZM19.5 167.618V171.428H20.5V167.618H19.5ZM19.5 175.237V179.047H20.5V175.237H19.5ZM19.5 182.857V186.666H20.5V182.857H19.5ZM19.5 190.476V194.286H20.5V190.476H19.5ZM19.5 198.095V200H20.5V198.095H19.5ZM19.5 200C19.5 200.678 19.5329 201.348 19.5973 202.01L20.5926 201.913C20.5313 201.284 20.5 200.645 20.5 200H19.5ZM20.3777 205.953C20.7706 207.249 21.2885 208.492 21.9173 209.666L22.7988 209.194C22.2008 208.077 21.7083 206.896 21.3348 205.663L20.3777 205.953ZM24.1529 213.005C25.0051 214.043 25.9572 214.995 26.9945 215.847L27.6294 215.074C26.6424 214.264 25.7364 213.358 24.9255 212.371L24.1529 213.005ZM30.3343 218.083C31.5082 218.712 32.7506 219.229 34.0474 219.622L34.3373 218.665C33.1043 218.292 31.923 217.799 30.8065 217.201L30.3343 218.083ZM37.9905 220.403C38.6517 220.467 39.3221 220.5 40 220.5V219.5C39.3545 219.5 38.7165 219.469 38.0873 219.407L37.9905 220.403ZM40 220.5H41.9697V219.5H40V220.5ZM45.9091 220.5H49.8485V219.5H45.9091V220.5ZM53.7879 220.5H57.7273V219.5H53.7879V220.5ZM61.6667 220.5H65.6061V219.5H61.6667V220.5ZM69.5455 220.5H73.4848V219.5H69.5455V220.5ZM77.4242 220.5H81.3636V219.5H77.4242V220.5ZM85.303 220.5H89.2424V219.5H85.303V220.5ZM93.1818 220.5H97.1212V219.5H93.1818V220.5ZM101.061 220.5H105V219.5H101.061V220.5ZM108.939 220.5H112.879V219.5H108.939V220.5ZM116.818 220.5H120.758V219.5H116.818V220.5ZM124.697 220.5H128.636V219.5H124.697V220.5ZM132.576 220.5H136.515V219.5H132.576V220.5ZM140.455 220.5H144.394V219.5H140.455V220.5ZM148.333 220.5H152.273V219.5H148.333V220.5ZM156.212 220.5H160.151V219.5H156.212V220.5ZM164.091 220.5H168.03V219.5H164.091V220.5ZM171.97 220.5H175.909V219.5H171.97V220.5ZM179.848 220.5H183.788V219.5H179.848V220.5ZM187.727 220.5H191.667V219.5H187.727V220.5ZM195.606 220.5H199.545V219.5H195.606V220.5ZM203.485 220.5H207.424V219.5H203.485V220.5ZM211.364 220.5H215.303V219.5H211.364V220.5ZM219.242 220.5H223.182V219.5H219.242V220.5ZM227.121 220.5H231.061V219.5H227.121V220.5ZM235 220.5H238.939V219.5H235V220.5ZM242.879 220.5H246.818V219.5H242.879V220.5ZM250.757 220.5H254.697V219.5H250.757V220.5ZM258.636 220.5H262.576V219.5H258.636V220.5ZM266.515 220.5H270.454V219.5H266.515V220.5ZM274.394 220.5H278.333V219.5H274.394V220.5ZM282.273 220.5H286.212V219.5H282.273V220.5ZM290.151 220.5H294.091V219.5H290.151V220.5ZM298.03 220.5H300V219.5H298.03V220.5ZM300 220.5C300.678 220.5 301.348 220.467 302.01 220.403L301.913 219.407C301.284 219.469 300.645 219.5 300 219.5V220.5ZM305.953 219.622C307.249 219.229 308.492 218.712 309.666 218.083L309.194 217.201C308.077 217.799 306.896 218.292 305.663 218.665L305.953 219.622ZM313.005 215.847C314.043 214.995 314.995 214.043 315.847 213.005L315.074 212.371C314.264 213.358 313.358 214.264 312.371 215.074L313.005 215.847ZM318.083 209.666C318.712 208.492 319.229 207.249 319.622 205.953L318.665 205.663C318.292 206.896 317.799 208.077 317.201 209.194L318.083 209.666ZM320.403 202.01C320.467 201.348 320.5 200.678 320.5 200H319.5C319.5 200.645 319.469 201.284 319.407 201.913L320.403 202.01ZM320.5 200V198.037H319.5V200H320.5ZM320.5 194.112V190.187H319.5V194.112H320.5ZM320.5 186.262V182.337H319.5V186.262H320.5ZM320.5 178.412V174.487H319.5V178.412H320.5ZM320.5 170.562V166.636H319.5V170.562H320.5ZM320.5 162.711V160.749H319.5V162.711H320.5ZM320.5 160.749C320.5 160.149 320.474 159.553 320.422 158.962L319.426 159.049C319.475 159.611 319.5 160.178 319.5 160.749H320.5ZM319.802 155.443C319.492 154.286 319.082 153.163 318.579 152.085L317.673 152.508C318.151 153.533 318.541 154.601 318.836 155.702L319.802 155.443ZM316.793 148.99C316.111 148.016 315.343 147.1 314.496 146.253L313.789 146.96C314.594 147.765 315.325 148.637 315.974 149.564L316.793 148.99ZM311.759 143.956C311.273 143.616 310.769 143.295 310.25 142.995L309.75 143.861C310.244 144.147 310.723 144.452 311.185 144.775L311.759 143.956ZM310.25 142.995L309.125 142.346L308.625 143.212L309.75 143.861L310.25 142.995ZM306.875 141.047L305.75 140.397L305.25 141.263L306.375 141.913L306.875 141.047ZM305.75 140.397C305.019 139.975 304.47 139.403 304.097 138.754L303.23 139.253C303.69 140.052 304.364 140.752 305.25 141.263L305.75 140.397ZM304.097 134.246C304.47 133.597 305.019 133.025 305.75 132.603L305.25 131.737C304.364 132.248 303.69 132.948 303.23 133.747L304.097 134.246ZM305.75 132.603L306.875 131.953L306.375 131.087L305.25 131.737L305.75 132.603ZM309.125 130.654L310.25 130.005L309.75 129.139L308.625 129.788L309.125 130.654ZM310.25 130.005C310.769 129.705 311.273 129.384 311.759 129.044L311.185 128.225C310.723 128.548 310.244 128.853 309.75 129.139L310.25 130.005ZM314.496 126.747C315.343 125.9 316.111 124.984 316.793 124.01L315.974 123.436C315.325 124.363 314.594 125.235 313.789 126.04L314.496 126.747ZM318.579 120.915C319.082 119.837 319.492 118.714 319.802 117.557L318.836 117.298C318.541 118.399 318.151 119.467 317.673 120.492L318.579 120.915ZM320.422 114.038C320.474 113.447 320.5 112.851 320.5 112.251H319.5C319.5 112.822 319.475 113.389 319.426 113.951L320.422 114.038ZM320.5 112.251V110.244H319.5V112.251H320.5ZM320.5 106.23V102.216H319.5V106.23H320.5ZM320.5 98.2024V94.1885H319.5V98.2024H320.5ZM320.5 90.1745V86.1605H319.5V90.1745H320.5ZM320.5 82.1466V78.1326H319.5V82.1466H320.5ZM320.5 74.1187V70.1047H319.5V74.1187H320.5ZM320.5 66.0907V62.0768H319.5V66.0907H320.5ZM320.5 58.0628V54.0489H319.5V58.0628H320.5ZM320.5 50.0349V46.0209H319.5V50.0349H320.5ZM320.5 42.007V40H319.5V42.007H320.5ZM320.5 40C320.5 39.3221 320.467 38.6518 320.403 37.9905L319.407 38.0873C319.469 38.7165 319.5 39.3545 319.5 40H320.5ZM319.622 34.0474C319.229 32.7506 318.712 31.5082 318.083 30.3343L317.201 30.8065C317.799 31.923 318.292 33.1043 318.665 34.3373L319.622 34.0474ZM315.847 26.9945C314.995 25.9572 314.043 25.0051 313.005 24.1529L312.371 24.9255C313.358 25.7364 314.264 26.6424 315.074 27.6294L315.847 26.9945ZM309.666 21.9173C308.492 21.2885 307.249 20.7706 305.953 20.3777L305.663 21.3348C306.896 21.7083 308.077 22.2008 309.194 22.7988L309.666 21.9173ZM302.01 19.5973C301.348 19.5329 300.678 19.5 300 19.5V20.5C300.645 20.5 301.284 20.5313 301.913 20.5926L302.01 19.5973ZM300 19.5H298.03V20.5H300V19.5ZM294.091 19.5H290.152V20.5H294.091V19.5ZM286.212 19.5H282.273V20.5H286.212V19.5ZM278.333 19.5H274.394V20.5H278.333V19.5ZM270.455 19.5H266.515V20.5H270.455V19.5ZM262.576 19.5H258.636V20.5H262.576V19.5ZM254.697 19.5H250.758V20.5H254.697V19.5ZM246.818 19.5H242.879V20.5H246.818V19.5ZM238.939 19.5H235V20.5H238.939V19.5ZM231.061 19.5H227.121V20.5H231.061V19.5ZM223.182 19.5H219.242V20.5H223.182V19.5ZM215.303 19.5H211.364V20.5H215.303V19.5ZM207.424 19.5H203.485V20.5H207.424V19.5ZM199.545 19.5H195.606V20.5H199.545V19.5ZM191.667 19.5H187.727V20.5H191.667V19.5ZM183.788 19.5H179.849V20.5H183.788V19.5ZM175.909 19.5H171.97V20.5H175.909V19.5ZM168.03 19.5H164.091V20.5H168.03V19.5ZM160.152 19.5H156.212V20.5H160.152V19.5ZM152.273 19.5H148.333V20.5H152.273V19.5ZM144.394 19.5H140.455V20.5H144.394V19.5ZM136.515 19.5H132.576V20.5H136.515V19.5ZM128.636 19.5H124.697V20.5H128.636V19.5ZM120.758 19.5H116.818V20.5H120.758V19.5ZM112.879 19.5H108.939V20.5H112.879V19.5ZM105 19.5H101.061V20.5H105V19.5ZM97.1213 19.5H93.1819V20.5H97.1213V19.5ZM89.2425 19.5H85.3031V20.5H89.2425V19.5ZM81.3637 19.5H77.4243V20.5H81.3637V19.5ZM73.4849 19.5H69.5456V20.5H73.4849V19.5ZM65.6062 19.5H61.6668V20.5H65.6062V19.5ZM57.7274 19.5H53.788V20.5H57.7274V19.5ZM49.8486 19.5H45.9092V20.5H49.8486V19.5ZM41.9698 19.5H40V20.5H41.9698V19.5ZM305.5 132.17L306 133.036L306 133.036L305.5 132.17ZM305.5 140.83L306 139.964L306 139.964L305.5 140.83ZM36.5 140.83L37 141.696L37 141.696L36.5 140.83ZM36.5 132.17L37 131.304L37 131.304L36.5 132.17ZM30 128.417L30.5 127.551L30 128.417ZM30 144.583L30.5 145.449L30 144.583ZM310 143.428L310.5 142.562L310 143.428ZM310 129.572L309.5 128.706L310 129.572ZM40 19C39.3059 19 38.6194 19.0337 37.942 19.0996L38.1358 21.0902C38.7488 21.0306 39.3707 21 40 21V19ZM33.9024 19.8992C32.5737 20.3018 31.3009 20.8324 30.0982 21.4765L31.0425 23.2395C32.1303 22.6569 33.2812 22.1772 34.4823 21.8133L33.9024 19.8992ZM26.6771 23.7665C25.6147 24.6395 24.6395 25.6147 23.7665 26.6771L25.3119 27.9468C26.1021 26.985 26.985 26.1021 27.9468 25.3119L26.6771 23.7665ZM21.4765 30.0982C20.8324 31.3009 20.3018 32.5737 19.8992 33.9024L21.8133 34.4823C22.1772 33.2812 22.6569 32.1303 23.2395 31.0425L21.4765 30.0982ZM19.0996 37.942C19.0337 38.6194 19 39.3059 19 40H21C21 39.3707 21.0306 38.7488 21.0902 38.1358L19.0996 37.942ZM19 40V41.9749H21V40H19ZM19 45.9247V49.8745H21V45.9247H19ZM19 53.8243V57.7741H21V53.8243H19ZM19 61.724V65.6738H21V61.724H19ZM19 69.6236V73.5734H21V69.6236H19ZM19 77.5232V81.473H21V77.5232H19ZM19 85.4228V89.3726H21V85.4228H19ZM19 93.3224V97.2723H21V93.3224H19ZM19 101.222V105.172H21V101.222H19ZM19 109.122V111.097H21V109.122H19ZM19 111.097C19 111.711 19.0268 112.322 19.0797 112.927L21.0721 112.753C21.0243 112.205 21 111.653 21 111.097H19ZM19.7151 116.532C20.0327 117.717 20.4526 118.868 20.9675 119.972L22.78 119.126C22.3141 118.127 21.9343 117.086 21.647 116.014L19.7151 116.532ZM22.7977 123.142C23.4963 124.14 24.2829 125.079 25.1504 125.946L26.5647 124.532C25.7799 123.747 25.0682 122.898 24.4361 121.995L22.7977 123.142ZM27.9546 128.299C28.4525 128.647 28.9679 128.976 29.5 129.283L30.5 127.551C30.0184 127.273 29.552 126.976 29.1016 126.66L27.9546 128.299ZM29.5 129.283L31.125 130.221L32.125 128.489L30.5 127.551L29.5 129.283ZM34.375 132.098L36 133.036L37 131.304L35.375 130.366L34.375 132.098ZM36 133.036C36.6532 133.413 37.1398 133.921 37.4697 134.495L39.2033 133.498C38.7007 132.624 37.963 131.86 37 131.304L36 133.036ZM37.4697 138.505C37.1398 139.079 36.6532 139.587 36 139.964L37 141.696C37.963 141.14 38.7007 140.376 39.2033 139.502L37.4697 138.505ZM36 139.964L34.375 140.902L35.375 142.634L37 141.696L36 139.964ZM31.125 142.779L29.5 143.717L30.5 145.449L32.125 144.511L31.125 142.779ZM29.5 143.717C28.9679 144.024 28.4525 144.353 27.9547 144.701L29.1016 146.34C29.552 146.024 30.0184 145.727 30.5 145.449L29.5 143.717ZM25.1504 147.054C24.2829 147.921 23.4963 148.86 22.7977 149.858L24.4361 151.005C25.0682 150.102 25.7799 149.253 26.5647 148.468L25.1504 147.054ZM20.9675 153.028C20.4526 154.132 20.0327 155.283 19.7151 156.468L21.647 156.986C21.9343 155.914 22.3141 154.873 22.78 153.874L20.9675 153.028ZM19.0797 160.073C19.0268 160.678 19 161.289 19 161.903H21C21 161.347 21.0243 160.795 21.0721 160.247L19.0797 160.073ZM19 161.903V163.808H21V161.903H19ZM19 167.618V171.428H21V167.618H19ZM19 175.237V179.047H21V175.237H19ZM19 182.857V186.666H21V182.857H19ZM19 190.476V194.286H21V190.476H19ZM19 198.095V200H21V198.095H19ZM19 200C19 200.694 19.0337 201.381 19.0996 202.058L21.0902 201.864C21.0306 201.251 21 200.629 21 200H19ZM19.8992 206.098C20.3018 207.426 20.8324 208.699 21.4765 209.902L23.2395 208.957C22.6569 207.87 22.1772 206.719 21.8133 205.518L19.8992 206.098ZM23.7665 213.323C24.6395 214.385 25.6147 215.361 26.6771 216.233L27.9468 214.688C26.985 213.898 26.1021 213.015 25.3119 212.053L23.7665 213.323ZM30.0982 218.523C31.3009 219.168 32.5737 219.698 33.9024 220.101L34.4823 218.187C33.2812 217.823 32.1303 217.343 31.0425 216.76L30.0982 218.523ZM37.942 220.9C38.6194 220.966 39.3059 221 40 221V219C39.3707 219 38.7488 218.969 38.1358 218.91L37.942 220.9ZM40 221H41.9697V219H40V221ZM45.9091 221H49.8485V219H45.9091V221ZM53.7879 221H57.7273V219H53.7879V221ZM61.6667 221H65.6061V219H61.6667V221ZM69.5455 221H73.4848V219H69.5455V221ZM77.4242 221H81.3636V219H77.4242V221ZM85.303 221H89.2424V219H85.303V221ZM93.1818 221H97.1212V219H93.1818V221ZM101.061 221H105V219H101.061V221ZM108.939 221H112.879V219H108.939V221ZM116.818 221H120.758V219H116.818V221ZM124.697 221H128.636V219H124.697V221ZM132.576 221H136.515V219H132.576V221ZM140.455 221H144.394V219H140.455V221ZM148.333 221H152.273V219H148.333V221ZM156.212 221H160.151V219H156.212V221ZM164.091 221H168.03V219H164.091V221ZM171.97 221H175.909V219H171.97V221ZM179.848 221H183.788V219H179.848V221ZM187.727 221H191.667V219H187.727V221ZM195.606 221H199.545V219H195.606V221ZM203.485 221H207.424V219H203.485V221ZM211.364 221H215.303V219H211.364V221ZM219.242 221H223.182V219H219.242V221ZM227.121 221H231.061V219H227.121V221ZM235 221H238.939V219H235V221ZM242.879 221H246.818V219H242.879V221ZM250.757 221H254.697V219H250.757V221ZM258.636 221H262.576V219H258.636V221ZM266.515 221H270.454V219H266.515V221ZM274.394 221H278.333V219H274.394V221ZM282.273 221H286.212V219H282.273V221ZM290.151 221H294.091V219H290.151V221ZM298.03 221H300V219H298.03V221ZM300 221C300.694 221 301.381 220.966 302.058 220.9L301.864 218.91C301.251 218.969 300.629 219 300 219V221ZM306.098 220.101C307.426 219.698 308.699 219.168 309.902 218.523L308.957 216.76C307.87 217.343 306.719 217.823 305.518 218.187L306.098 220.101ZM313.323 216.233C314.385 215.361 315.361 214.385 316.233 213.323L314.688 212.053C313.898 213.015 313.015 213.898 312.053 214.688L313.323 216.233ZM318.523 209.902C319.168 208.699 319.698 207.426 320.101 206.098L318.187 205.518C317.823 206.719 317.343 207.87 316.76 208.957L318.523 209.902ZM320.9 202.058C320.966 201.381 321 200.694 321 200H319C319 200.629 318.969 201.251 318.91 201.864L320.9 202.058ZM321 200V198.037H319V200H321ZM321 194.112V190.187H319V194.112H321ZM321 186.262V182.337H319V186.262H321ZM321 178.412V174.487H319V178.412H321ZM321 170.562V166.636H319V170.562H321ZM321 162.711V160.749H319V162.711H321ZM321 160.749C321 160.134 320.973 159.524 320.92 158.918L318.928 159.092C318.976 159.64 319 160.193 319 160.749H321ZM320.285 155.313C319.967 154.128 319.547 152.978 319.032 151.874L317.22 152.719C317.686 153.718 318.066 154.759 318.353 155.831L320.285 155.313ZM317.202 148.704C316.504 147.706 315.717 146.767 314.85 145.899L313.435 147.313C314.22 148.098 314.932 148.948 315.564 149.851L317.202 148.704ZM312.045 143.546C311.547 143.198 311.032 142.869 310.5 142.562L309.5 144.294C309.982 144.572 310.448 144.87 310.898 145.185L312.045 143.546ZM310.5 142.562L309.375 141.913L308.375 143.645L309.5 144.294L310.5 142.562ZM307.125 140.614L306 139.964L305 141.696L306.125 142.346L307.125 140.614ZM306 139.964C305.347 139.587 304.86 139.079 304.53 138.505L302.797 139.502C303.299 140.376 304.037 141.14 305 141.696L306 139.964ZM304.53 134.495C304.86 133.921 305.347 133.413 306 133.036L305 131.304C304.037 131.86 303.299 132.624 302.797 133.498L304.53 134.495ZM306 133.036L307.125 132.386L306.125 130.654L305 131.304L306 133.036ZM309.375 131.087L310.5 130.438L309.5 128.706L308.375 129.355L309.375 131.087ZM310.5 130.438C311.032 130.131 311.547 129.802 312.045 129.454L310.898 127.815C310.448 128.13 309.982 128.428 309.5 128.706L310.5 130.438ZM314.85 127.101C315.717 126.233 316.504 125.294 317.202 124.296L315.564 123.149C314.932 124.052 314.22 124.902 313.435 125.687L314.85 127.101ZM319.032 121.126C319.547 120.022 319.967 118.872 320.285 117.687L318.353 117.169C318.066 118.241 317.686 119.282 317.22 120.281L319.032 121.126ZM320.92 114.082C320.973 113.476 321 112.866 321 112.251H319C319 112.807 318.976 113.36 318.928 113.908L320.92 114.082ZM321 112.251V110.244H319V112.251H321ZM321 106.23V102.216H319V106.23H321ZM321 98.2024V94.1885H319V98.2024H321ZM321 90.1745V86.1605H319V90.1745H321ZM321 82.1466V78.1326H319V82.1466H321ZM321 74.1187V70.1047H319V74.1187H321ZM321 66.0907V62.0768H319V66.0907H321ZM321 58.0628V54.0489H319V58.0628H321ZM321 50.0349V46.0209H319V50.0349H321ZM321 42.007V40H319V42.007H321ZM321 40C321 39.3059 320.966 38.6194 320.9 37.942L318.91 38.1358C318.969 38.7488 319 39.3707 319 40H321ZM320.101 33.9024C319.698 32.5737 319.168 31.3009 318.523 30.0982L316.76 31.0425C317.343 32.1303 317.823 33.2812 318.187 34.4823L320.101 33.9024ZM316.233 26.6771C315.361 25.6147 314.385 24.6395 313.323 23.7665L312.053 25.3119C313.015 26.1021 313.898 26.985 314.688 27.9468L316.233 26.6771ZM309.902 21.4765C308.699 20.8324 307.426 20.3018 306.098 19.8992L305.518 21.8133C306.719 22.1772 307.87 22.6569 308.957 23.2395L309.902 21.4765ZM302.058 19.0996C301.381 19.0337 300.694 19 300 19V21C300.629 21 301.251 21.0306 301.864 21.0902L302.058 19.0996ZM300 19H298.03V21H300V19ZM294.091 19H290.152V21H294.091V19ZM286.212 19H282.273V21H286.212V19ZM278.333 19H274.394V21H278.333V19ZM270.455 19H266.515V21H270.455V19ZM262.576 19H258.636V21H262.576V19ZM254.697 19H250.758V21H254.697V19ZM246.818 19H242.879V21H246.818V19ZM238.939 19H235V21H238.939V19ZM231.061 19H227.121V21H231.061V19ZM223.182 19H219.242V21H223.182V19ZM215.303 19H211.364V21H215.303V19ZM207.424 19H203.485V21H207.424V19ZM199.545 19H195.606V21H199.545V19ZM191.667 19H187.727V21H191.667V19ZM183.788 19H179.849V21H183.788V19ZM175.909 19H171.97V21H175.909V19ZM168.03 19H164.091V21H168.03V19ZM160.152 19H156.212V21H160.152V19ZM152.273 19H148.333V21H152.273V19ZM144.394 19H140.455V21H144.394V19ZM136.515 19H132.576V21H136.515V19ZM128.636 19H124.697V21H128.636V19ZM120.758 19H116.818V21H120.758V19ZM112.879 19H108.939V21H112.879V19ZM105 19H101.061V21H105V19ZM97.1213 19H93.1819V21H97.1213V19ZM89.2425 19H85.3031V21H89.2425V19ZM81.3637 19H77.4243V21H81.3637V19ZM73.4849 19H69.5456V21H73.4849V19ZM65.6062 19H61.6668V21H65.6062V19ZM57.7274 19H53.788V21H57.7274V19ZM49.8486 19H45.9092V21H49.8486V19ZM41.9698 19H40V21H41.9698V19Z" fill="#D5D5D5" mask="url(#path-1-inside-1_1_18)"/>
</g>
<path d="M168.107 124.728H171.779C171.203 117.276 177.323 119.04 177.323 111.84C177.323 108.24 174.767 104.28 170.339 104.28C168.503 104.28 162.959 105.144 162.563 112.776H166.127C166.379 109.176 167.783 108.024 169.979 108.024C171.707 108.024 173.399 108.78 173.399 112.056C173.399 117.276 167.351 115.584 168.107 124.728ZM171.995 128.004H167.747V132.468H171.995V128.004Z" fill="#E0E0E0"/>
<defs>
<filter id="filter0_d_1_18" x="0" y="0" width="340" height="240" filterUnits="userSpaceOnUse" color-interpolation-filters="sRGB">
<feFlood flood-opacity="0" result="BackgroundImageFix"/>
<feColorMatrix in="SourceAlpha" type="matrix" values="0 0 0 0 0 0 0 0 0 0 0 0 0 0 0 0 0 0 127 0" result="hardAlpha"/>
<feOffset/>
<feGaussianBlur stdDeviation="10"/>
<feComposite in2="hardAlpha" operator="out"/>
<feColorMatrix type="matrix" values="0 0 0 0 0.746005 0 0 0 0 0.746005 0 0 0 0 0.746005 0 0 0 0.2 0"/>
<feBlend mode="normal" in2="BackgroundImageFix" result="effect1_dropShadow_1_18"/>
<feBlend mode="normal" in="SourceGraphic" in2="effect1_dropShadow_1_18" result="shape"/>
</filter>
</defs>
</svg>
