<svg width="59" height="64" viewBox="0 0 59 64" fill="none" xmlns="http://www.w3.org/2000/svg">
<path d="M0 6C0 2.68629 2.68629 0 6 0H53C56.3137 0 59 2.68629 59 6V58C59 61.3137 56.3137 64 53 64H6C2.68629 64 0 61.3137 0 58V6Z" fill="#F5F5F5"/>
<path fill-rule="evenodd" clip-rule="evenodd" d="M53 0.5H6C2.96243 0.5 0.5 2.96243 0.5 6V58C0.5 61.0376 2.96244 63.5 6 63.5H53C56.0376 63.5 58.5 61.0376 58.5 58V6C58.5 2.96243 56.0376 0.5 53 0.5ZM6 0C2.68629 0 0 2.68629 0 6V58C0 61.3137 2.68629 64 6 64H53C56.3137 64 59 61.3137 59 58V6C59 2.68629 56.3137 0 53 0H6Z" fill="#E6E6E6"/>
<path opacity="0.6" fill-rule="evenodd" clip-rule="evenodd" d="M38.7227 24.4801C39.286 24.8792 39.419 25.6594 39.0199 26.2227L30.8339 37.7758C29.8505 39.1636 27.8557 39.335 26.6501 38.1351L20.1182 31.6341C19.6289 31.1471 19.627 30.3557 20.114 29.8664C20.601 29.377 21.3925 29.3752 21.8818 29.8622L28.4137 36.3631C28.5233 36.4722 28.7046 36.4566 28.794 36.3305L36.9801 24.7773C37.3792 24.214 38.1594 24.0809 38.7227 24.4801Z" fill="#CCCCCC"/>
</svg>
