<svg width="24" height="24" viewBox="0 0 24 24" fill="none" xmlns="http://www.w3.org/2000/svg">
<path fill-rule="evenodd" clip-rule="evenodd" d="M12.9489 2.9305C14.0334 1.88309 15.4858 1.30352 16.9934 1.31662C18.5011 1.32972 19.9432 1.93445 21.0093 3.00054C22.0754 4.06664 22.6802 5.50881 22.6933 7.01644C22.7064 8.52407 22.1268 9.97654 21.0794 11.061L21.0703 11.0704L18.0703 14.0702C17.4874 14.6533 16.7859 15.1043 16.0134 15.3924C15.2409 15.6806 14.4154 15.7993 13.593 15.7404C12.7706 15.6815 11.9705 15.4464 11.2469 15.0511C10.5233 14.6558 9.89322 14.1094 9.39935 13.4492C9.15124 13.1175 9.219 12.6475 9.55069 12.3994C9.88238 12.1513 10.3524 12.219 10.6005 12.5507C10.9655 13.0387 11.4313 13.4425 11.9661 13.7347C12.5009 14.0269 13.0923 14.2007 13.7001 14.2442C14.308 14.2877 14.9181 14.2 15.4891 13.987C16.0601 13.774 16.5786 13.4407 17.0095 13.0097L20.0048 10.0144C20.7762 9.21336 21.203 8.14173 21.1933 7.02948C21.1836 5.91514 20.7367 4.84919 19.9487 4.0612C19.1607 3.27322 18.0947 2.82625 16.9804 2.81657C15.8678 2.8069 14.7959 3.23393 13.9947 4.00581L12.2787 5.71184C11.985 6.00388 11.5101 6.00249 11.218 5.70875C10.926 5.415 10.9274 4.94013 11.2211 4.64809L12.9489 2.9305Z" fill="black"/>
<path fill-rule="evenodd" clip-rule="evenodd" d="M7.98673 8.6075C8.75925 8.31933 9.58471 8.20066 10.4071 8.25956C11.2295 8.31846 12.0297 8.55355 12.7532 8.94887C13.4768 9.34419 14.1069 9.8905 14.6008 10.5507C14.8489 10.8824 14.7811 11.3524 14.4494 11.6006C14.1177 11.8487 13.6477 11.7809 13.3996 11.4492C13.0346 10.9612 12.5689 10.5574 12.0341 10.2652C11.4992 9.97302 10.9078 9.79927 10.3 9.75573C9.6921 9.7122 9.08198 9.7999 8.51098 10.0129C7.93999 10.2259 7.42148 10.5592 6.99063 10.9902L3.99532 13.9855C3.22389 14.7866 2.79714 15.8582 2.8068 16.9705C2.81648 18.0848 3.26345 19.1508 4.05144 19.9387C4.83942 20.7267 5.90537 21.1737 7.01971 21.1834C8.13196 21.193 9.20359 20.7663 10.0047 19.9949L11.7099 18.2897C12.0028 17.9968 12.4776 17.9968 12.7705 18.2897C13.0634 18.5825 13.0634 19.0574 12.7705 19.3503L11.0513 21.0695C9.96685 22.1169 8.51431 22.6964 7.00668 22.6833C5.49905 22.6702 4.05687 22.0655 2.99078 20.9994C1.92468 19.9333 1.31996 18.4911 1.30686 16.9835C1.29376 15.4759 1.87332 14.0234 2.92073 12.9389L2.92979 12.9296L5.92977 9.92975C5.92974 9.92978 5.92981 9.92972 5.92977 9.92975C6.51267 9.34666 7.21425 8.89566 7.98673 8.6075Z" fill="black"/>
</svg>
