<svg width="64" height="64" viewBox="0 0 64 64" fill="none" xmlns="http://www.w3.org/2000/svg">
<circle cx="32" cy="32" r="32" fill="black"/>
<path d="M29.8787 32L24.5754 26.6967C23.9896 26.1109 23.9896 25.1612 24.5754 24.5754C25.1612 23.9896 26.1109 23.9896 26.6967 24.5754L32 29.8787L37.3033 24.5754C37.8891 23.9896 38.8388 23.9896 39.4246 24.5754C40.0104 25.1612 40.0104 26.1109 39.4246 26.6967L34.1213 32L39.4246 37.3033C40.0104 37.8891 40.0104 38.8388 39.4246 39.4246C38.8388 40.0104 37.8891 40.0104 37.3033 39.4246L32 34.1213L26.6967 39.4246C26.1109 40.0104 25.1612 40.0104 24.5754 39.4246C23.9896 38.8388 23.9896 37.8891 24.5754 37.3033L29.8787 32Z" fill="white"/>
</svg>
